<svg width="35" height="45" viewBox="0 0 35 45" fill="none" xmlns="http://www.w3.org/2000/svg">
<path d="M33.5571 17.7019C33.559 17.5981 33.56 17.4941 33.56 17.3899C33.56 8.27719 26.1727 0.889893 17.06 0.889893C7.9473 0.889893 0.559998 8.27719 0.559998 17.3899C0.559998 17.4941 0.560964 17.5981 0.562888 17.7019C0.560966 17.7643 0.559998 17.827 0.559998 17.8899V38.8899C0.559998 42.2036 3.24629 44.8899 6.56 44.8899H27.56C30.8737 44.8899 33.56 42.2036 33.56 38.8899V17.8899C33.56 17.827 33.559 17.7643 33.5571 17.7019Z" fill="#F2B203"/>
<path d="M4.26738 39.8899V38.5603L7.37392 35.6839C7.63812 35.4282 7.85971 35.1981 8.03869 34.9936C8.22051 34.789 8.35829 34.5888 8.45204 34.3927C8.54579 34.1939 8.59267 33.9794 8.59267 33.7493C8.59267 33.4936 8.53443 33.2734 8.41795 33.0888C8.30148 32.9013 8.14238 32.7578 7.94068 32.6584C7.73897 32.5561 7.51028 32.5049 7.2546 32.5049C6.98755 32.5049 6.7546 32.5589 6.55574 32.6669C6.35687 32.7748 6.20346 32.9297 6.09551 33.1314C5.98755 33.3331 5.93358 33.5731 5.93358 33.8515H4.18216C4.18216 33.2805 4.31142 32.7848 4.56994 32.3643C4.82846 31.9439 5.19068 31.6186 5.65659 31.3885C6.1225 31.1584 6.65943 31.0433 7.26738 31.0433C7.89238 31.0433 8.43642 31.1541 8.89949 31.3757C9.3654 31.5944 9.72761 31.8984 9.98613 32.2876C10.2447 32.6768 10.3739 33.1228 10.3739 33.6257C10.3739 33.9552 10.3086 34.2805 10.1779 34.6015C10.0501 34.9226 9.82136 35.2791 9.49182 35.6711C9.16227 36.0603 8.69778 36.5277 8.09835 37.0731L6.8242 38.3217V38.3814H10.489V39.8899H4.26738ZM15.2479 40.0817C14.5149 40.0788 13.8842 39.8984 13.3558 39.5405C12.8302 39.1825 12.4254 38.664 12.1413 37.9851C11.8601 37.3061 11.7209 36.4893 11.7237 35.5348C11.7237 34.5831 11.8643 33.772 12.1456 33.1015C12.4297 32.4311 12.8345 31.9211 13.3601 31.5717C13.8885 31.2194 14.5177 31.0433 15.2479 31.0433C15.978 31.0433 16.6058 31.2194 17.1314 31.5717C17.6598 31.924 18.066 32.4353 18.3501 33.1058C18.6342 33.7734 18.7748 34.5831 18.772 35.5348C18.772 36.4922 18.63 37.3103 18.3459 37.9893C18.0646 38.6683 17.6612 39.1868 17.1356 39.5447C16.6101 39.9027 15.9808 40.0817 15.2479 40.0817ZM15.2479 38.5518C15.7479 38.5518 16.147 38.3004 16.4453 37.7976C16.7436 37.2947 16.8913 36.5405 16.8885 35.5348C16.8885 34.8728 16.8203 34.3217 16.6839 33.8814C16.5504 33.441 16.3601 33.1101 16.1129 32.8885C15.8686 32.6669 15.5802 32.5561 15.2479 32.5561C14.7507 32.5561 14.353 32.8047 14.0547 33.3018C13.7564 33.799 13.6058 34.5433 13.603 35.5348C13.603 36.2052 13.6697 36.7649 13.8033 37.2138C13.9396 37.6598 14.1314 37.995 14.3785 38.2194C14.6257 38.441 14.9155 38.5518 15.2479 38.5518ZM20.0877 39.8899V38.5603L23.1942 35.6839C23.4584 35.4282 23.68 35.1981 23.859 34.9936C24.0408 34.789 24.1786 34.5888 24.2724 34.3927C24.3661 34.1939 24.413 33.9794 24.413 33.7493C24.413 33.4936 24.3547 33.2734 24.2383 33.0888C24.1218 32.9013 23.9627 32.7578 23.761 32.6584C23.5593 32.5561 23.3306 32.5049 23.0749 32.5049C22.8079 32.5049 22.5749 32.5589 22.376 32.6669C22.1772 32.7748 22.0238 32.9297 21.9158 33.1314C21.8079 33.3331 21.7539 33.5731 21.7539 33.8515H20.0025C20.0025 33.2805 20.1317 32.7848 20.3903 32.3643C20.6488 31.9439 21.011 31.6186 21.4769 31.3885C21.9428 31.1584 22.4797 31.0433 23.0877 31.0433C23.7127 31.0433 24.2567 31.1541 24.7198 31.3757C25.1857 31.5944 25.5479 31.8984 25.8064 32.2876C26.065 32.6768 26.1942 33.1228 26.1942 33.6257C26.1942 33.9552 26.1289 34.2805 25.9982 34.6015C25.8704 34.9226 25.6417 35.2791 25.3121 35.6711C24.9826 36.0603 24.5181 36.5277 23.9187 37.0731L22.6445 38.3217V38.3814H26.3093V39.8899H20.0877ZM27.3267 38.3558V36.9027L30.9702 31.1626H32.223V33.174H31.4815L29.1846 36.8089V36.8771H34.3622V38.3558H27.3267ZM31.5156 39.8899V37.9126L31.5497 37.2692V31.1626H33.2798V39.8899H31.5156Z" fill="black"/>
<path d="M17.06 7.16064C15.7569 7.16073 14.4667 7.41748 13.2628 7.91622C12.059 8.41496 10.9652 9.14593 10.0438 10.0674C9.12248 10.9889 8.39165 12.0828 7.89307 13.2867C7.39449 14.4906 7.13792 15.7809 7.13801 17.084C7.1381 18.387 7.39484 19.6773 7.89358 20.8812C8.39232 22.085 9.1233 23.1788 10.0448 24.1002C10.9662 25.0215 12.0601 25.7523 13.2641 26.2509C14.468 26.7495 15.7583 27.0061 17.0613 27.006C19.693 27.0058 22.2168 25.9602 24.0775 24.0992C25.9383 22.2382 26.9835 19.7143 26.9833 17.0826C26.9832 14.451 25.9376 11.9272 24.0766 10.0665C22.2156 8.20572 19.6917 7.16047 17.06 7.16064ZM17.06 25.894C15.8899 25.9143 14.7275 25.7014 13.6405 25.2677C12.5536 24.834 11.5639 24.1882 10.7292 23.3679C9.8945 22.5476 9.23154 21.5693 8.779 20.4901C8.32645 19.4108 8.09338 18.2523 8.09338 17.082C8.09338 15.9117 8.32645 14.7531 8.779 13.6739C9.23154 12.5946 9.8945 11.6163 10.7292 10.796C11.5639 9.97576 12.5536 9.32992 13.6405 8.89621C14.7275 8.46251 15.8899 8.24962 17.06 8.26998C19.3785 8.2985 21.5924 9.23953 23.2218 10.8891C24.8512 12.5387 25.7649 14.764 25.7649 17.0826C25.7649 19.4013 24.8512 21.6266 23.2218 23.2762C21.5924 24.9258 19.3785 25.8655 17.06 25.894ZM14.8507 17.7566C14.8507 18.0786 14.7228 18.3874 14.4951 18.6151C14.2674 18.8427 13.9586 18.9706 13.6367 18.9706C13.3147 18.9706 13.0059 18.8427 12.7782 18.6151C12.5506 18.3874 12.4227 18.0786 12.4227 17.7566C12.4227 17.4347 12.5506 17.1259 12.7782 16.8982C13.0059 16.6705 13.3147 16.5426 13.6367 16.5426C13.9586 16.5426 14.2674 16.6705 14.4951 16.8982C14.7228 17.1259 14.8507 17.4347 14.8507 17.7566ZM21.696 17.7566C21.696 17.9161 21.6646 18.0739 21.6036 18.2212C21.5426 18.3685 21.4532 18.5023 21.3404 18.6151C21.2277 18.7278 21.0939 18.8172 20.9466 18.8782C20.7993 18.9392 20.6414 18.9706 20.482 18.9706C20.3226 18.9706 20.1647 18.9392 20.0174 18.8782C19.8701 18.8172 19.7363 18.7278 19.6236 18.6151C19.5109 18.5023 19.4214 18.3685 19.3604 18.2212C19.2994 18.0739 19.268 17.9161 19.268 17.7566C19.268 17.4348 19.3958 17.1262 19.6234 16.8987C19.8509 16.6711 20.1595 16.5433 20.4813 16.5433C20.8031 16.5433 21.1118 16.6711 21.3393 16.8987C21.5668 17.1262 21.6947 17.4348 21.6947 17.7566M22.788 15.2273L23.908 14.01H21.424C20.1381 13.132 18.6171 12.6626 17.06 12.6633C15.5042 12.6602 13.984 13.1288 12.7 14.0073H10.2093L11.3293 15.2246C10.661 15.8391 10.2641 16.6938 10.226 17.6009C10.1878 18.5079 10.5116 19.393 11.126 20.0613C11.7404 20.7297 12.5952 21.1266 13.5022 21.1647C14.4093 21.2028 15.2943 20.8791 15.9627 20.2646L17.06 21.4593L18.1573 20.266C18.4855 20.5853 18.8743 20.8355 19.3009 21.0019C19.7275 21.1683 20.183 21.2474 20.6407 21.2347C21.0984 21.2219 21.5489 21.1175 21.9655 20.9275C22.3821 20.7376 22.7564 20.4661 23.0662 20.1289C23.376 19.7918 23.6151 19.396 23.7693 18.9649C23.9234 18.5338 23.9895 18.0761 23.9637 17.619C23.9379 17.1618 23.8207 16.7145 23.619 16.3035C23.4173 15.8925 23.1351 15.5261 22.7893 15.226M13.636 20.0713C13.3317 20.0713 13.0304 20.0114 12.7492 19.8949C12.4681 19.7785 12.2126 19.6078 11.9974 19.3926C11.7822 19.1774 11.6115 18.9219 11.4951 18.6408C11.3786 18.3596 11.3187 18.0583 11.3187 17.754C11.3187 17.4497 11.3786 17.1483 11.4951 16.8672C11.6115 16.586 11.7822 16.3306 11.9974 16.1154C12.2126 15.9002 12.4681 15.7295 12.7492 15.613C13.0304 15.4966 13.3317 15.4366 13.636 15.4366C14.2506 15.4366 14.84 15.6808 15.2746 16.1154C15.7092 16.55 15.9533 17.1394 15.9533 17.754C15.9533 18.3686 15.7092 18.958 15.2746 19.3926C14.84 19.8272 14.2506 20.0713 13.636 20.0713ZM17.06 17.69C17.06 16.166 15.9507 14.858 14.488 14.2993C15.3027 13.9587 16.177 13.7833 17.06 13.7833C17.9425 13.783 18.8163 13.958 19.6307 14.298C18.1693 14.858 17.0613 16.1646 17.0613 17.6886M20.4827 20.0713C20.1784 20.0712 19.877 20.0112 19.5959 19.8947C19.3148 19.7781 19.0594 19.6074 18.8443 19.3921C18.6291 19.1769 18.4585 18.9214 18.3422 18.6402C18.2258 18.359 18.1659 18.0576 18.166 17.7533C18.1661 17.449 18.2261 17.1477 18.3427 16.8666C18.4592 16.5854 18.63 16.33 18.8452 16.1149C19.0605 15.8998 19.316 15.7292 19.5972 15.6128C19.8783 15.4964 20.1797 15.4366 20.484 15.4366C21.0986 15.4366 21.688 15.6808 22.1226 16.1154C22.5572 16.55 22.8013 17.1394 22.8013 17.754C22.8013 18.3686 22.5572 18.958 22.1226 19.3926C21.688 19.8272 21.0973 20.0713 20.4827 20.0713ZM9.20934 25.03C9.20934 25.03 8.70668 23.7686 7.34801 22.4926C5.98801 21.2166 4.27734 20.9833 4.27734 20.9833C4.27734 20.9833 4.88668 22.3433 6.33068 23.7033C7.77868 25.0593 9.20934 25.03 9.20934 25.03ZM12.6333 26.91C12.6333 26.91 11.9347 26.2286 10.6613 25.7326C9.38801 25.2366 8.18001 25.478 8.18001 25.478C8.18001 25.478 8.97734 26.198 10.3333 26.7246C11.688 27.254 12.6333 26.91 12.6333 26.91ZM15.9573 27.5833C15.9573 27.5833 15.2307 27.2846 14.148 27.322C13.0653 27.3593 12.2613 27.9486 12.2613 27.9486C12.2613 27.9486 13.072 28.2446 14.2253 28.206C15.3787 28.1673 15.9573 27.5833 15.9573 27.5833ZM7.71068 21.9793C7.71068 21.9793 7.47734 20.6353 6.41201 19.1073C5.34534 17.578 3.72534 17.0033 3.72534 17.0033C3.72534 17.0033 4.04268 18.4673 5.17734 20.0953C6.31068 21.722 7.71068 21.9793 7.71068 21.9793ZM6.37334 17.8846C6.37334 17.8846 6.63334 16.5233 6.19468 14.694C5.75734 12.866 4.46934 11.7473 4.46934 11.7473C4.46934 11.7473 4.24268 13.2513 4.70934 15.1993C5.17601 17.146 6.37334 17.8846 6.37334 17.8846Z" fill="black"/>
<path d="M24.9093 25.03C24.9093 25.03 25.412 23.7686 26.7707 22.4926C28.1307 21.2166 29.8413 20.9833 29.8413 20.9833C29.8413 20.9833 29.232 22.3433 27.788 23.7033C26.34 25.0593 24.9093 25.03 24.9093 25.03ZM21.4867 26.91C21.4867 26.91 22.1853 26.2286 23.4587 25.7326C24.732 25.2366 25.94 25.478 25.94 25.478C25.94 25.478 25.1427 26.198 23.7867 26.7246C22.432 27.254 21.4867 26.91 21.4867 26.91ZM18.1627 27.5833C18.1627 27.5833 18.8893 27.2846 19.972 27.322C21.0547 27.3593 21.8587 27.9487 21.8587 27.9487C21.8587 27.9487 21.048 28.2446 19.8947 28.206C18.7413 28.1673 18.1627 27.5833 18.1627 27.5833ZM26.4093 21.9793C26.4093 21.9793 26.6427 20.6353 27.708 19.1073C28.7747 17.578 30.3947 17.0033 30.3947 17.0033C30.3947 17.0033 30.0773 18.4673 28.9427 20.0953C27.8093 21.722 26.4093 21.9793 26.4093 21.9793ZM27.7467 17.8846C27.7467 17.8846 27.4867 16.5233 27.924 14.694C28.364 12.866 29.648 11.7473 29.648 11.7473C29.648 11.7473 29.8747 13.2513 29.408 15.1993C28.9427 17.146 27.7467 17.8846 27.7467 17.8846ZM17.06 28.6193C17.2062 28.6193 17.3465 28.5612 17.4499 28.4578C17.5532 28.3544 17.6113 28.2142 17.6113 28.068C17.6113 27.9218 17.5532 27.7815 17.4499 27.6781C17.3465 27.5747 17.2062 27.5166 17.06 27.5166C16.9138 27.5166 16.7735 27.5747 16.6701 27.6781C16.5668 27.7815 16.5087 27.9218 16.5087 28.068C16.5087 28.2142 16.5668 28.3544 16.6701 28.4578C16.7735 28.5612 16.9138 28.6193 17.06 28.6193Z" fill="black"/>
</svg>
