<svg width="34" height="45" viewBox="0 0 34 45" fill="none" xmlns="http://www.w3.org/2000/svg">
<path d="M32.9971 17.7019C32.999 17.5981 33 17.4941 33 17.3899C33 8.27719 25.6127 0.889893 16.5 0.889893C7.3873 0.889893 0 8.27719 0 17.3899C0 17.4941 0.000966238 17.5981 0.00289024 17.7019C0.00096811 17.7643 0 17.827 0 17.8899V38.8899C0 42.2036 2.68629 44.8899 6 44.8899H27C30.3137 44.8899 33 42.2036 33 38.8899V17.8899C33 17.827 32.999 17.7643 32.9971 17.7019Z" fill="#34E0A1"/>
<path d="M3.70739 39.8899V38.5603L6.81392 35.6839C7.07813 35.4282 7.29972 35.1981 7.47869 34.9936C7.66051 34.789 7.7983 34.5888 7.89205 34.3927C7.9858 34.1939 8.03267 33.9794 8.03267 33.7493C8.03267 33.4936 7.97443 33.2734 7.85795 33.0888C7.74148 32.9013 7.58239 32.7578 7.38068 32.6584C7.17898 32.5561 6.95028 32.5049 6.6946 32.5049C6.42756 32.5049 6.1946 32.5589 5.99574 32.6669C5.79688 32.7748 5.64347 32.9297 5.53551 33.1314C5.42756 33.3331 5.37358 33.5731 5.37358 33.8515H3.62216C3.62216 33.2805 3.75142 32.7848 4.00994 32.3643C4.26847 31.9439 4.63068 31.6186 5.09659 31.3885C5.5625 31.1584 6.09943 31.0433 6.70739 31.0433C7.33239 31.0433 7.87642 31.1541 8.33949 31.3757C8.8054 31.5944 9.16761 31.8984 9.42614 32.2876C9.68466 32.6768 9.81392 33.1228 9.81392 33.6257C9.81392 33.9552 9.74858 34.2805 9.6179 34.6015C9.49006 34.9226 9.26136 35.2791 8.93182 35.6711C8.60227 36.0603 8.13778 36.5277 7.53835 37.0731L6.2642 38.3217V38.3814H9.92898V39.8899H3.70739ZM14.6879 40.0817C13.9549 40.0788 13.3242 39.8984 12.7958 39.5405C12.2702 39.1825 11.8654 38.664 11.5813 37.9851C11.3001 37.3061 11.1609 36.4893 11.1637 35.5348C11.1637 34.5831 11.3043 33.772 11.5856 33.1015C11.8697 32.4311 12.2745 31.9211 12.8001 31.5717C13.3285 31.2194 13.9577 31.0433 14.6879 31.0433C15.418 31.0433 16.0458 31.2194 16.5714 31.5717C17.0998 31.924 17.506 32.4353 17.7901 33.1058C18.0742 33.7734 18.2148 34.5831 18.212 35.5348C18.212 36.4922 18.07 37.3103 17.7859 37.9893C17.5046 38.6683 17.1012 39.1868 16.5756 39.5447C16.0501 39.9027 15.4208 40.0817 14.6879 40.0817ZM14.6879 38.5518C15.1879 38.5518 15.587 38.3004 15.8853 37.7976C16.1836 37.2947 16.3313 36.5405 16.3285 35.5348C16.3285 34.8728 16.2603 34.3217 16.1239 33.8814C15.9904 33.441 15.8001 33.1101 15.5529 32.8885C15.3086 32.6669 15.0202 32.5561 14.6879 32.5561C14.1907 32.5561 13.793 32.8047 13.4947 33.3018C13.1964 33.799 13.0458 34.5433 13.043 35.5348C13.043 36.2052 13.1097 36.7649 13.2433 37.2138C13.3796 37.6598 13.5714 37.995 13.8185 38.2194C14.0657 38.441 14.3555 38.5518 14.6879 38.5518ZM19.5277 39.8899V38.5603L22.6342 35.6839C22.8984 35.4282 23.12 35.1981 23.299 34.9936C23.4808 34.789 23.6186 34.5888 23.7124 34.3927C23.8061 34.1939 23.853 33.9794 23.853 33.7493C23.853 33.4936 23.7947 33.2734 23.6783 33.0888C23.5618 32.9013 23.4027 32.7578 23.201 32.6584C22.9993 32.5561 22.7706 32.5049 22.5149 32.5049C22.2479 32.5049 22.0149 32.5589 21.8161 32.6669C21.6172 32.7748 21.4638 32.9297 21.3558 33.1314C21.2479 33.3331 21.1939 33.5731 21.1939 33.8515H19.4425C19.4425 33.2805 19.5717 32.7848 19.8303 32.3643C20.0888 31.9439 20.451 31.6186 20.9169 31.3885C21.3828 31.1584 21.9197 31.0433 22.5277 31.0433C23.1527 31.0433 23.6967 31.1541 24.1598 31.3757C24.6257 31.5944 24.9879 31.8984 25.2464 32.2876C25.505 32.6768 25.6342 33.1228 25.6342 33.6257C25.6342 33.9552 25.5689 34.2805 25.4382 34.6015C25.3104 34.9226 25.0817 35.2791 24.7521 35.6711C24.4226 36.0603 23.9581 36.5277 23.3587 37.0731L22.0845 38.3217V38.3814H25.7493V39.8899H19.5277ZM26.7667 38.3558V36.9027L30.4102 31.1626H31.663V33.174H30.9215L28.6246 36.8089V36.8771H33.8022V38.3558H26.7667ZM30.9556 39.8899V37.9126L30.9897 37.2692V31.1626H32.7198V39.8899H30.9556Z" fill="black"/>
<path d="M16.5 7.16064C15.1969 7.16073 13.9067 7.41748 12.7028 7.91622C11.499 8.41496 10.4052 9.14593 9.48382 10.0674C8.56248 10.9889 7.83165 12.0828 7.33307 13.2867C6.83449 14.4906 6.57792 15.7809 6.57801 17.084C6.5781 18.387 6.83484 19.6773 7.33358 20.8812C7.83233 22.085 8.5633 23.1788 9.48476 24.1002C10.4062 25.0215 11.5001 25.7523 12.7041 26.2509C13.908 26.7495 15.1983 27.0061 16.5013 27.006C19.133 27.0058 21.6568 25.9602 23.5175 24.0992C25.3783 22.2382 26.4235 19.7143 26.4233 17.0826C26.4232 14.451 25.3776 11.9272 23.5166 10.0665C21.6556 8.20572 19.1317 7.16047 16.5 7.16064ZM16.5 25.894C15.3299 25.9143 14.1675 25.7014 13.0805 25.2677C11.9936 24.834 11.0039 24.1882 10.1692 23.3679C9.3345 22.5476 8.67154 21.5693 8.219 20.4901C7.76645 19.4108 7.53338 18.2523 7.53338 17.082C7.53338 15.9117 7.76645 14.7531 8.219 13.6739C8.67154 12.5946 9.3345 11.6163 10.1692 10.796C11.0039 9.97576 11.9936 9.32992 13.0805 8.89621C14.1675 8.46251 15.3299 8.24962 16.5 8.26998C18.8185 8.2985 21.0324 9.23953 22.6618 10.8891C24.2912 12.5387 25.2049 14.764 25.2049 17.0826C25.2049 19.4013 24.2912 21.6266 22.6618 23.2762C21.0324 24.9258 18.8185 25.8655 16.5 25.894ZM14.2907 17.7566C14.2907 18.0786 14.1628 18.3874 13.9351 18.6151C13.7074 18.8427 13.3987 18.9706 13.0767 18.9706C12.7547 18.9706 12.4459 18.8427 12.2183 18.6151C11.9906 18.3874 11.8627 18.0786 11.8627 17.7566C11.8627 17.4347 11.9906 17.1259 12.2183 16.8982C12.4459 16.6705 12.7547 16.5426 13.0767 16.5426C13.3987 16.5426 13.7074 16.6705 13.9351 16.8982C14.1628 17.1259 14.2907 17.4347 14.2907 17.7566ZM21.136 17.7566C21.136 17.9161 21.1046 18.0739 21.0436 18.2212C20.9826 18.3685 20.8932 18.5023 20.7804 18.6151C20.6677 18.7278 20.5339 18.8172 20.3866 18.8782C20.2393 18.9392 20.0814 18.9706 19.922 18.9706C19.7626 18.9706 19.6047 18.9392 19.4574 18.8782C19.3101 18.8172 19.1763 18.7278 19.0636 18.6151C18.9509 18.5023 18.8614 18.3685 18.8004 18.2212C18.7394 18.0739 18.708 17.9161 18.708 17.7566C18.708 17.4348 18.8358 17.1262 19.0634 16.8987C19.2909 16.6711 19.5995 16.5433 19.9213 16.5433C20.2431 16.5433 20.5518 16.6711 20.7793 16.8987C21.0068 17.1262 21.1347 17.4348 21.1347 17.7566M22.228 15.2273L23.348 14.01H20.864C19.5781 13.132 18.0571 12.6626 16.5 12.6633C14.9442 12.6602 13.424 13.1288 12.14 14.0073H9.64934L10.7693 15.2246C10.101 15.8391 9.7041 16.6938 9.66597 17.6009C9.62784 18.5079 9.95159 19.393 10.566 20.0613C11.1804 20.7297 12.0352 21.1266 12.9422 21.1647C13.8493 21.2028 14.7343 20.8791 15.4027 20.2646L16.5 21.4593L17.5973 20.266C17.9255 20.5853 18.3143 20.8355 18.7409 21.0019C19.1675 21.1683 19.6231 21.2474 20.0807 21.2347C20.5384 21.2219 20.9889 21.1175 21.4055 20.9275C21.8221 20.7376 22.1964 20.4661 22.5062 20.1289C22.816 19.7918 23.0551 19.396 23.2093 18.9649C23.3634 18.5338 23.4296 18.0761 23.4037 17.619C23.3779 17.1618 23.2607 16.7145 23.059 16.3035C22.8573 15.8925 22.5751 15.5261 22.2293 15.226M13.076 20.0713C12.7717 20.0713 12.4704 20.0114 12.1892 19.8949C11.9081 19.7785 11.6526 19.6078 11.4374 19.3926C11.2222 19.1774 11.0515 18.9219 10.9351 18.6408C10.8186 18.3596 10.7587 18.0583 10.7587 17.754C10.7587 17.4497 10.8186 17.1483 10.9351 16.8672C11.0515 16.586 11.2222 16.3306 11.4374 16.1154C11.6526 15.9002 11.9081 15.7295 12.1892 15.613C12.4704 15.4966 12.7717 15.4366 13.076 15.4366C13.6906 15.4366 14.28 15.6808 14.7146 16.1154C15.1492 16.55 15.3933 17.1394 15.3933 17.754C15.3933 18.3686 15.1492 18.958 14.7146 19.3926C14.28 19.8272 13.6906 20.0713 13.076 20.0713ZM16.5 17.69C16.5 16.166 15.3907 14.858 13.928 14.2993C14.7427 13.9587 15.617 13.7833 16.5 13.7833C17.3825 13.783 18.2563 13.958 19.0707 14.298C17.6093 14.858 16.5013 16.1646 16.5013 17.6886M19.9227 20.0713C19.6184 20.0712 19.317 20.0112 19.0359 19.8947C18.7548 19.7781 18.4994 19.6074 18.2843 19.3921C18.0691 19.1769 17.8985 18.9214 17.7822 18.6402C17.6658 18.359 17.6059 18.0576 17.606 17.7533C17.6061 17.449 17.6661 17.1477 17.7827 16.8666C17.8992 16.5854 18.07 16.33 18.2852 16.1149C18.5005 15.8998 18.756 15.7292 19.0372 15.6128C19.3183 15.4964 19.6197 15.4366 19.924 15.4366C20.5386 15.4366 21.128 15.6808 21.5626 16.1154C21.9972 16.55 22.2413 17.1394 22.2413 17.754C22.2413 18.3686 21.9972 18.958 21.5626 19.3926C21.128 19.8272 20.5373 20.0713 19.9227 20.0713ZM8.64934 25.03C8.64934 25.03 8.14668 23.7686 6.78801 22.4926C5.42801 21.2166 3.71734 20.9833 3.71734 20.9833C3.71734 20.9833 4.32668 22.3433 5.77068 23.7033C7.21868 25.0593 8.64934 25.03 8.64934 25.03ZM12.0733 26.91C12.0733 26.91 11.3747 26.2286 10.1013 25.7326C8.82801 25.2366 7.62001 25.478 7.62001 25.478C7.62001 25.478 8.41734 26.198 9.77334 26.7246C11.128 27.254 12.0733 26.91 12.0733 26.91ZM15.3973 27.5833C15.3973 27.5833 14.6707 27.2846 13.588 27.322C12.5053 27.3593 11.7013 27.9486 11.7013 27.9486C11.7013 27.9486 12.512 28.2446 13.6653 28.206C14.8187 28.1673 15.3973 27.5833 15.3973 27.5833ZM7.15068 21.9793C7.15068 21.9793 6.91734 20.6353 5.85201 19.1073C4.78534 17.578 3.16534 17.0033 3.16534 17.0033C3.16534 17.0033 3.48268 18.4673 4.61734 20.0953C5.75068 21.722 7.15068 21.9793 7.15068 21.9793ZM5.81334 17.8846C5.81334 17.8846 6.07334 16.5233 5.63468 14.694C5.19734 12.866 3.90934 11.7473 3.90934 11.7473C3.90934 11.7473 3.68268 13.2513 4.14934 15.1993C4.61601 17.146 5.81334 17.8846 5.81334 17.8846Z" fill="black"/>
<path d="M24.3493 25.03C24.3493 25.03 24.852 23.7686 26.2107 22.4926C27.5707 21.2166 29.2813 20.9833 29.2813 20.9833C29.2813 20.9833 28.672 22.3433 27.228 23.7033C25.78 25.0593 24.3493 25.03 24.3493 25.03ZM20.9267 26.91C20.9267 26.91 21.6253 26.2286 22.8987 25.7326C24.172 25.2366 25.38 25.478 25.38 25.478C25.38 25.478 24.5827 26.198 23.2267 26.7246C21.872 27.254 20.9267 26.91 20.9267 26.91ZM17.6027 27.5833C17.6027 27.5833 18.3293 27.2846 19.412 27.322C20.4947 27.3593 21.2987 27.9487 21.2987 27.9487C21.2987 27.9487 20.488 28.2446 19.3347 28.206C18.1813 28.1673 17.6027 27.5833 17.6027 27.5833ZM25.8493 21.9793C25.8493 21.9793 26.0827 20.6353 27.148 19.1073C28.2147 17.578 29.8347 17.0033 29.8347 17.0033C29.8347 17.0033 29.5173 18.4673 28.3827 20.0953C27.2493 21.722 25.8493 21.9793 25.8493 21.9793ZM27.1867 17.8846C27.1867 17.8846 26.9267 16.5233 27.364 14.694C27.804 12.866 29.088 11.7473 29.088 11.7473C29.088 11.7473 29.3147 13.2513 28.848 15.1993C28.3827 17.146 27.1867 17.8846 27.1867 17.8846ZM16.5 28.6193C16.6462 28.6193 16.7865 28.5612 16.8899 28.4578C16.9932 28.3544 17.0513 28.2142 17.0513 28.068C17.0513 27.9218 16.9932 27.7815 16.8899 27.6781C16.7865 27.5747 16.6462 27.5166 16.5 27.5166C16.3538 27.5166 16.2135 27.5747 16.1102 27.6781C16.0068 27.7815 15.9487 27.9218 15.9487 28.068C15.9487 28.2142 16.0068 28.3544 16.1102 28.4578C16.2135 28.5612 16.3538 28.6193 16.5 28.6193Z" fill="black"/>
</svg>
