<svg width="25" height="24" viewBox="0 0 25 24" fill="none" xmlns="http://www.w3.org/2000/svg">
<path d="M9.70198 22.286L2.07198 14.396L3.94198 12.526L7.33198 13.126C7.41198 13.126 7.83198 13.126 8.06198 12.916L10.212 10.836C10.232 10.786 10.252 10.706 10.252 10.676C10.252 10.656 10.182 10.576 9.99198 10.486L2.79198 7.16601L5.53198 4.48601L14.362 6.07601C14.562 6.09601 14.852 6.09601 14.982 6.07601L18.192 2.83601C19.052 2.05601 20.772 1.08601 21.952 2.25601C23.122 3.42601 22.192 5.13601 21.462 5.96601L18.302 9.19601C18.282 9.25601 18.252 9.43601 18.312 9.80601L19.832 18.636L17.132 21.066L13.842 14.226C13.7936 14.1661 13.732 14.1182 13.662 14.086L11.172 16.416C11.172 16.416 11.162 16.566 11.182 16.716L11.732 20.336L9.69198 22.286H9.70198ZM4.17198 14.416L9.74198 20.166L10.142 19.786L9.71198 16.936C9.55198 15.896 9.96198 15.436 10.222 15.256L12.642 13.016C13.092 12.596 13.552 12.556 13.842 12.586C14.572 12.666 15.022 13.276 15.112 13.396L15.172 13.496L17.622 18.596L18.212 18.056L16.832 10.046C16.622 8.82601 17.022 8.29601 17.272 8.08601L20.362 4.93601C20.612 4.64601 21.252 3.67601 20.892 3.30601C20.532 2.94601 19.532 3.62601 19.232 3.90601L15.962 7.19601C15.492 7.64601 14.612 7.61601 14.132 7.54601L6.03198 6.09601L5.40198 6.71601L10.612 9.11601C11.342 9.44601 11.602 9.93601 11.692 10.286C11.892 11.036 11.462 11.666 11.412 11.736L11.322 11.846L9.08198 14.016C8.30198 14.726 7.23198 14.636 7.12198 14.616L4.45198 14.146L4.18198 14.416H4.17198Z" fill="#333333"/>
</svg>
