<svg width="12" height="13" viewBox="0 0 12 13" fill="none" xmlns="http://www.w3.org/2000/svg">
<path fill-rule="evenodd" clip-rule="evenodd" d="M6 0.889893C2.6945 0.889893 0 3.58439 0 6.88989C0 10.1999 2.6945 12.8899 6 12.8899C9.31 12.8899 12 10.2004 12 6.88989C12 3.57939 9.3105 0.889893 6 0.889893ZM6 1.88989C6.65691 1.88884 7.30756 2.01745 7.91466 2.26835C8.52177 2.51925 9.07338 2.88751 9.53788 3.35201C10.0024 3.81651 10.3706 4.36813 10.6215 4.97523C10.8724 5.58233 11.0011 6.23299 11 6.88989C11.0016 7.54695 10.8733 8.19784 10.6226 8.80518C10.3719 9.41252 10.0037 9.96435 9.53906 10.429C9.07446 10.8936 8.52263 11.2618 7.91529 11.5125C7.30795 11.7632 6.65705 11.8915 6 11.8899V1.88989Z" fill="#00AA6C"/>
</svg>
