<svg width="21" height="21" viewBox="0 0 21 21" fill="none" xmlns="http://www.w3.org/2000/svg">
<path d="M17.3675 5.31161C16.5933 4.5933 15.5761 4.19439 14.52 4.19494C13.4617 4.19494 12.4442 4.59328 11.6725 5.31161L10.9725 5.97994L10.2567 5.30327C9.48302 4.58716 8.46753 4.18954 7.41333 4.18994C6.35912 4.18954 5.34363 4.58716 4.56999 5.30327C2.98749 6.78077 3.25416 9.05994 4.56166 10.6616C6.59175 12.7814 8.73134 14.7936 10.9717 16.6899C10.9717 16.6899 15.9675 12.4041 17.3667 10.6699C18.7658 8.93661 18.9317 6.78911 17.3667 5.31161" fill="#FF5D5D"/>
<path fill-rule="evenodd" clip-rule="evenodd" d="M4.00332 4.69169C4.93116 3.8329 6.14904 3.35611 7.41332 3.35669C8.67832 3.35669 9.89666 3.83336 10.8233 4.69169L10.8292 4.69752L10.97 4.83086L11.105 4.70086C12.0333 3.83907 13.2533 3.36037 14.52 3.36086C15.7867 3.36037 17.0066 3.83907 17.935 4.70086L17.94 4.70502C18.8933 5.60502 19.3383 6.73836 19.3125 7.91336C19.2867 9.07002 18.8075 10.2134 18.0158 11.1934C17.2675 12.1217 15.6158 13.6725 14.205 14.9484C13.3366 15.7333 12.4593 16.5084 11.5733 17.2734L11.515 17.3225L10.9767 17.785L10.435 17.3267C8.17196 15.4116 6.01067 13.3793 3.95999 11.2384L3.93666 11.215L3.91582 11.1892C2.43416 9.37252 1.99249 6.57086 4.00082 4.69419L4.00332 4.69169ZM10.9692 15.5917L11.2267 15.3667C11.7142 14.9392 12.3792 14.3525 13.0867 13.7125C14.5233 12.4125 16.0683 10.9534 16.7192 10.1475C17.3275 9.39336 17.63 8.59586 17.6458 7.87669C17.6617 7.17502 17.4075 6.49669 16.7975 5.91919C16.1778 5.34555 15.3644 5.02709 14.52 5.02752C13.6761 5.02684 12.863 5.34469 12.2433 5.91752L10.9767 7.13002L9.68749 5.91169C9.06796 5.33985 8.25559 5.02264 7.41249 5.02336C6.56916 5.0231 5.75677 5.34091 5.13749 5.91336C3.98999 6.98586 4.07416 8.72752 5.18749 10.1109C7.02625 12.0286 8.95568 13.8582 10.9692 15.5917Z" fill="#FF5D5D"/>
</svg>
