<svg width="21" height="16" viewBox="0 0 21 16" fill="none" xmlns="http://www.w3.org/2000/svg">
<path fill-rule="evenodd" clip-rule="evenodd" d="M1.56199 1.40499C1.56199 0.934993 1.94199 0.554993 2.41199 0.554993H18.036C18.506 0.554993 18.886 0.934993 18.886 1.40499V8.05399C19.566 8.61599 20.106 9.44699 20.106 10.598V15.445H18.606V13.77H2.01399V15.444H0.513992V10.57C0.538992 9.91599 0.817992 8.98199 1.56299 8.21999L1.56199 1.40499ZM4.19699 6.99199C4.45966 6.95733 4.73833 6.93999 5.03299 6.93999H8.92899C8.42599 6.45799 7.61899 6.00999 6.49599 6.00999C5.40599 6.00999 4.66699 6.47699 4.19699 6.99199ZM11.585 6.93999H16.053L16.089 6.94399C16.2523 6.95866 16.431 6.98599 16.625 7.02599C16.5577 6.94253 16.4838 6.86461 16.404 6.79299C15.957 6.38299 15.224 6.00999 14.15 6.00999C13.072 6.00999 12.4 6.28299 11.97 6.59399C11.8296 6.69511 11.7005 6.81112 11.585 6.93999ZM17.385 5.65799C16.659 5.00699 15.573 4.50999 14.15 4.50999C12.803 4.50999 11.812 4.85699 11.09 5.37799C10.748 5.62599 10.48 5.90299 10.269 6.17999C9.53299 5.31899 8.26399 4.50999 6.49499 4.50999C4.86599 4.50999 3.76199 5.22199 3.06099 6.01299V2.05499H17.385V5.65799ZM2.01299 12.27H18.607V10.597C18.607 9.89399 18.252 9.40899 17.719 9.05199C17.159 8.67799 16.456 8.49099 15.979 8.43899H5.03399C3.91599 8.43899 3.22399 8.75599 2.79699 9.11699C2.22699 9.59899 2.03199 10.24 2.01399 10.613L2.01299 12.27Z" fill="#333333"/>
</svg>
