<svg width="36" height="37" viewBox="0 0 36 37" fill="none" xmlns="http://www.w3.org/2000/svg">
<rect y="0.439941" width="36" height="36" rx="18" fill="white"/>
<path fill-rule="evenodd" clip-rule="evenodd" d="M9.798 11.6058C10.8651 10.6179 12.2658 10.0693 13.72 10.0698C15.175 10.0698 16.577 10.6178 17.642 11.6058L17.647 11.6108L17.988 11.9328L18.32 11.6158C19.388 10.625 20.7912 10.0749 22.248 10.0758C23.706 10.0758 25.11 10.6258 26.176 11.6158L26.18 11.6198C27.273 12.6518 27.778 13.9438 27.749 15.2818C27.719 16.6048 27.17 17.9248 26.249 19.0668C25.365 20.1628 23.399 22.0098 21.702 23.5448C20.6616 24.4851 19.6105 25.4135 18.549 26.3298L18.48 26.3888L17.995 26.8048L17.507 26.3928C14.7986 24.1 12.2118 21.6673 9.757 19.1048L9.736 19.0838L9.716 19.0608C7.991 16.9458 7.513 13.7408 9.796 11.6078L9.798 11.6058ZM17.988 24.8318L18.46 24.4198C19.2107 23.7632 19.9561 23.1005 20.696 22.4318C22.416 20.8758 24.286 19.1118 25.081 18.1258C25.838 17.1868 26.228 16.1778 26.249 15.2488C26.269 14.3368 25.936 13.4538 25.152 12.7128C24.3621 11.9809 23.3249 11.5744 22.248 11.5748C21.168 11.5748 20.131 11.9818 19.345 12.7108L17.995 14.0028L16.62 12.7028C15.8304 11.9736 14.7948 11.569 13.72 11.5698C12.6446 11.5693 11.6086 11.9747 10.819 12.7048C9.312 14.1128 9.466 16.3638 10.861 18.0898C13.126 20.4513 15.5045 22.7013 17.988 24.8318Z" fill="black"/>
</svg>
