<svg width="25" height="24" viewBox="0 0 25 24" fill="none" xmlns="http://www.w3.org/2000/svg">
<path fill-rule="evenodd" clip-rule="evenodd" d="M12.675 2.17401L22.435 8.67401V21.826H2.92499V8.67401L12.675 2.17401ZM12.675 3.97701L4.42499 9.47701V20.326H20.935V9.47701L12.675 3.97701ZM9.68499 12.336C9.35347 12.336 9.03552 12.4677 8.8011 12.7021C8.56668 12.9365 8.43499 13.2545 8.43499 13.586C8.43499 13.9175 8.56668 14.2355 8.8011 14.4699C9.03552 14.7043 9.35347 14.836 9.68499 14.836C10.0165 14.836 10.3345 14.7043 10.5689 14.4699C10.8033 14.2355 10.935 13.9175 10.935 13.586C10.935 13.2545 10.8033 12.9365 10.5689 12.7021C10.3345 12.4677 10.0165 12.336 9.68499 12.336ZM6.93499 13.586C6.93478 12.9221 7.17475 12.2805 7.61062 11.7797C8.04648 11.2789 8.64881 10.9527 9.3064 10.8613C9.96399 10.7699 10.6324 10.9195 11.1884 11.2824C11.7443 11.6454 12.1501 12.1972 12.331 12.836H18.675V14.336H16.425V16.586H14.925V14.336H12.331C12.1487 14.9734 11.7425 15.5235 11.1869 15.8852C10.6314 16.2469 9.96387 16.3958 9.30725 16.3046C8.65064 16.2133 8.04907 15.888 7.6132 15.3885C7.17734 14.889 6.9365 14.2489 6.93499 13.586Z" fill="#333333"/>
</svg>
