<svg width="25" height="24" viewBox="0 0 25 24" fill="none" xmlns="http://www.w3.org/2000/svg">
<path fill-rule="evenodd" clip-rule="evenodd" d="M14.148 4.891L16.82 2.22L17.88 3.28L15.209 5.952C14.53 6.631 14.154 7.414 14.089 8.151C14.046 8.651 14.143 9.154 14.416 9.623L19.32 4.72L20.38 5.78L15.474 10.686C15.947 10.967 16.448 11.073 16.94 11.04C17.658 10.993 18.407 10.646 19.036 10.017C19.8891 9.16304 20.7404 8.30737 21.59 7.45L21.816 7.222L22.883 8.277L22.656 8.507C21.8043 9.36528 20.951 10.222 20.096 11.077C19.247 11.926 18.169 12.461 17.039 12.536C16.0938 12.5991 15.1567 12.3271 14.392 11.768L13.161 13L20.881 20.72L19.82 21.78L13.85 15.81L10.85 18.81L9.10001 17.06L4.38001 21.78L3.32001 20.72L8.04001 16L3.64801 11.609C3.20686 11.1679 2.85691 10.6442 2.61816 10.0679C2.37941 9.49156 2.25652 8.87384 2.25652 8.25C2.25652 7.62616 2.37941 7.00844 2.61816 6.4321C2.85691 5.85576 3.20686 5.33209 3.64801 4.891L4.35001 4.189L12.1 11.939L13.333 10.707C12.771 9.93005 12.5092 8.97596 12.596 8.021C12.696 6.874 13.265 5.775 14.148 4.891ZM12.79 14.75L4.37801 6.338C3.92257 6.96404 3.70557 7.73209 3.76607 8.5039C3.82657 9.27571 4.16059 10.0006 4.70801 10.548L10.85 16.689L12.79 14.75Z" fill="#333333"/>
</svg>
