<svg width="24" height="36" viewBox="0 0 24 36" fill="none" xmlns="http://www.w3.org/2000/svg">
<path fill-rule="evenodd" clip-rule="evenodd" d="M10.12 10.14C8.53136 10.14 7.00778 10.7711 5.88444 11.8944C4.76109 13.0178 4.13 14.5414 4.13 16.13C4.13 17.7187 4.76109 19.2422 5.88444 20.3656C7.00778 21.4889 8.53136 22.12 10.12 22.12C11.7087 22.12 13.2322 21.4889 14.3556 20.3656C15.4789 19.2422 16.11 17.7187 16.11 16.13C16.11 14.5414 15.4789 13.0178 14.3556 11.8944C13.2322 10.7711 11.7087 10.14 10.12 10.14ZM2.63 16.13C2.62998 14.9306 2.91797 13.7488 3.46977 12.6839C4.02157 11.619 4.82103 10.7022 5.80091 10.0106C6.78079 9.31894 7.91243 8.87275 9.10064 8.70952C10.2889 8.54629 11.4989 8.67079 12.629 9.07256C13.7591 9.47432 14.7761 10.1416 15.5947 11.0182C16.4132 11.8949 17.0092 12.9553 17.3326 14.1102C17.656 15.2652 17.6973 16.4809 17.453 17.6552C17.2088 18.8294 16.6861 19.9278 15.929 20.858L21.37 26.3L20.31 27.361L14.87 21.921C13.7731 22.8207 12.4433 23.3903 11.0354 23.5637C9.62737 23.7371 8.19909 23.507 6.91675 22.9003C5.63441 22.2936 4.55074 21.3352 3.79184 20.1366C3.03294 18.9381 2.63004 17.5486 2.63 16.13Z" fill="black"/>
</svg>
