<svg width="24" height="24" viewBox="0 0 24 24" fill="none" xmlns="http://www.w3.org/2000/svg">
<path fill-rule="evenodd" clip-rule="evenodd" d="M11.889 3.542C11.8479 3.51449 11.7995 3.4998 11.75 3.4998C11.7005 3.4998 11.6521 3.51449 11.611 3.542L3.611 8.875C3.57682 8.89787 3.5488 8.92881 3.52944 8.9651C3.51008 9.00138 3.49997 9.04188 3.5 9.083V19.548C3.5 19.686 3.612 19.798 3.75 19.798H19.75C19.8163 19.798 19.8799 19.7717 19.9268 19.7248C19.9737 19.6779 20 19.6143 20 19.548V9.083C20 9.04188 19.9899 9.00138 19.9706 8.9651C19.9512 8.92881 19.9232 8.89787 19.889 8.875L11.889 3.542ZM10.779 2.294C11.0665 2.10224 11.4044 1.99991 11.75 1.99991C12.0956 1.99991 12.4335 2.10224 12.721 2.294L20.721 7.627C21.208 7.952 21.5 8.498 21.5 9.083V19.548C21.5 20.0121 21.3156 20.4573 20.9874 20.7854C20.6592 21.1136 20.2141 21.298 19.75 21.298H3.75C3.52019 21.298 3.29262 21.2527 3.0803 21.1648C2.86798 21.0768 2.67507 20.9479 2.51256 20.7854C2.35006 20.6229 2.22116 20.43 2.13321 20.2177C2.04527 20.0054 2 19.7778 2 19.548V9.083C2 8.498 2.292 7.952 2.78 7.627L10.779 2.294Z" fill="black"/>
</svg>
