<svg width="25" height="24" viewBox="0 0 25 24" fill="none" xmlns="http://www.w3.org/2000/svg">
<path fill-rule="evenodd" clip-rule="evenodd" d="M2.75 4.75H22.25V9.204L21.714 9.364C21.1471 9.53403 20.6501 9.88231 20.2967 10.3572C19.9434 10.832 19.7526 11.4081 19.7526 12C19.7526 12.5919 19.9434 13.168 20.2967 13.6428C20.6501 14.1177 21.1471 14.466 21.714 14.636L22.25 14.796V19.25H2.75V14.796L3.286 14.636C3.85293 14.466 4.34994 14.1177 4.70327 13.6428C5.0566 13.168 5.24743 12.5919 5.24743 12C5.24743 11.4081 5.0566 10.832 4.70327 10.3572C4.34994 9.88231 3.85293 9.53403 3.286 9.364L2.75 9.204V4.75ZM4.25 6.25V8.126C4.99569 8.46242 5.62844 9.0069 6.0723 9.69408C6.51615 10.3813 6.75225 11.1819 6.75225 12C6.75225 12.8181 6.51615 13.6187 6.0723 14.3059C5.62844 14.9931 4.99569 15.5376 4.25 15.874V17.75H20.75V15.874C20.0043 15.5376 19.3716 14.9931 18.9277 14.3059C18.4838 13.6187 18.2477 12.8181 18.2477 12C18.2477 11.1819 18.4838 10.3813 18.9277 9.69408C19.3716 9.0069 20.0043 8.46242 20.75 8.126V6.25H4.25Z" fill="#333333"/>
<path d="M12.5 14.5C12.7652 14.5 13.0196 14.6054 13.2071 14.7929C13.3946 14.9804 13.5 15.2348 13.5 15.5C13.5 15.7652 13.3946 16.0196 13.2071 16.2071C13.0196 16.3946 12.7652 16.5 12.5 16.5C12.2348 16.5 11.9804 16.3946 11.7929 16.2071C11.6054 16.0196 11.5 15.7652 11.5 15.5C11.5 15.2348 11.6054 14.9804 11.7929 14.7929C11.9804 14.6054 12.2348 14.5 12.5 14.5ZM12.5 11C12.7652 11 13.0196 11.1054 13.2071 11.2929C13.3946 11.4804 13.5 11.7348 13.5 12C13.5 12.2652 13.3946 12.5196 13.2071 12.7071C13.0196 12.8946 12.7652 13 12.5 13C12.2348 13 11.9804 12.8946 11.7929 12.7071C11.6054 12.5196 11.5 12.2652 11.5 12C11.5 11.7348 11.6054 11.4804 11.7929 11.2929C11.9804 11.1054 12.2348 11 12.5 11ZM12.5 7.5C12.7652 7.5 13.0196 7.60536 13.2071 7.79289C13.3946 7.98043 13.5 8.23478 13.5 8.5C13.5 8.76522 13.3946 9.01957 13.2071 9.20711C13.0196 9.39464 12.7652 9.5 12.5 9.5C12.2348 9.5 11.9804 9.39464 11.7929 9.20711C11.6054 9.01957 11.5 8.76522 11.5 8.5C11.5 8.23478 11.6054 7.98043 11.7929 7.79289C11.9804 7.60536 12.2348 7.5 12.5 7.5Z" fill="#333333"/>
</svg>
